<?xml version="1.0" standalone="no"?>
<!DOCTYPE svg PUBLIC "-//W3C//DTD SVG 20010904//EN"
 "http://www.w3.org/TR/2001/REC-SVG-20010904/DTD/svg10.dtd">
<svg version="1.0" xmlns="http://www.w3.org/2000/svg"
 width="16.000000pt" height="16.000000pt" viewBox="0 0 16.000000 16.000000"
 preserveAspectRatio="xMidYMid meet">
<metadata>
Created by potrace 1.11, written by Peter Selinger 2001-2013
</metadata>
<g transform="translate(0.000000,16.000000) scale(0.002286,-0.002286)"
fill="#000000" stroke="none">
<path d="M3298 6995 c-1 -1 -45 -5 -97 -9 -51 -3 -96 -8 -100 -10 -3 -2 -40
-7 -80 -10 -41 -4 -78 -9 -81 -11 -3 -2 -24 -6 -46 -9 -51 -8 -81 -14 -102
-20 -9 -3 -33 -8 -52 -11 -96 -16 -424 -116 -527 -161 -18 -8 -48 -21 -67 -29
-19 -8 -37 -15 -40 -15 -4 0 -73 -33 -154 -73 -217 -109 -371 -204 -567 -351
-66 -50 -122 -93 -125 -97 -3 -3 -36 -33 -75 -66 -143 -123 -353 -349 -476
-513 -235 -313 -408 -644 -530 -1011 -26 -81 -51 -158 -53 -170 -3 -13 -13
-51 -21 -84 -9 -33 -18 -71 -21 -85 -2 -14 -9 -45 -14 -70 -12 -59 -29 -154
-35 -210 -4 -25 -8 -61 -11 -80 -28 -192 -25 -633 5 -845 20 -141 23 -156 66
-365 2 -8 9 -35 16 -60 7 -25 13 -51 15 -58 9 -48 85 -270 131 -382 159 -393
381 -745 668 -1059 90 -99 271 -269 368 -346 21 -16 44 -34 50 -40 24 -20 163
-121 202 -146 78 -52 181 -116 225 -141 60 -34 305 -158 313 -158 4 0 30 -11
59 -24 95 -43 240 -94 384 -136 165 -48 367 -91 499 -105 28 -3 56 -8 64 -11
30 -10 219 -19 411 -19 267 0 381 10 605 50 178 32 178 32 285 61 822 220
1523 716 2001 1414 245 357 430 784 523 1206 59 266 78 439 80 719 1 213 -7
401 -19 460 -2 11 -7 39 -9 63 -57 473 -261 1017 -541 1442 -62 94 -182 257
-227 309 -166 191 -233 259 -378 389 -520 465 -1215 777 -1910 857 -30 4 -68
8 -85 11 -35 5 -522 14 -527 9z m1272 -529 c378 -21 715 -175 1007 -463 83
-82 204 -232 265 -328 124 -196 220 -463 246 -685 9 -72 9 -321 0 -385 -19
-148 -70 -320 -130 -440 -75 -150 -221 -328 -363 -440 -27 -22 -52 -42 -55
-45 -9 -11 -170 -110 -170 -105 0 2 12 26 28 52 58 101 73 148 74 234 1 115
-37 220 -109 299 -86 96 -288 198 -428 217 -63 9 -209 9 -255 0 -19 -4 -48 -9
-65 -12 -16 -3 -46 -10 -65 -16 -62 -17 -271 -23 -361 -10 -236 34 -443 135
-605 296 -194 193 -293 426 -298 700 -7 352 180 705 475 900 92 60 261 146
354 178 97 34 154 47 243 54 43 3 78 7 80 8 2 2 11 1 20 -1 9 -2 60 -5 112 -8z
m-2671 -1176 c100 -11 290 -59 387 -98 80 -32 229 -112 211 -112 -9 -1 -51 -1
-92 -1 -139 -1 -243 -52 -332 -161 -72 -88 -94 -152 -98 -287 -7 -233 51 -399
201 -576 37 -44 71 -82 74 -85 4 -3 25 -30 47 -60 252 -339 282 -805 76 -1155
-54 -92 -73 -115 -163 -205 -90 -89 -96 -95 -191 -152 -168 -101 -337 -148
-533 -149 -115 -1 -137 2 -246 26 -86 20 -87 20 -147 44 -179 71 -390 211
-511 340 -93 98 -195 277 -266 468 -83 224 -104 563 -50 803 3 14 8 36 10 50
9 49 46 166 81 260 140 372 400 682 729 868 262 149 543 212 813 182z m2966
-2405 c405 -67 733 -372 842 -783 45 -171 40 -480 -11 -682 -43 -166 -205
-421 -376 -588 -135 -134 -403 -297 -550 -337 -3 -1 -14 -5 -25 -9 -50 -19
-76 -27 -170 -50 -55 -13 -122 -27 -150 -30 -27 -3 -61 -8 -75 -11 -50 -12
-298 -11 -400 1 -592 67 -1095 449 -1249 949 -12 37 -24 81 -27 98 -2 17 -7
33 -9 37 -9 14 -27 139 -31 215 -2 44 -6 97 -8 118 -2 20 -2 37 0 37 2 0 21
-31 43 -69 49 -83 100 -138 161 -173 77 -44 133 -58 237 -59 84 -1 167 30 286
105 167 105 262 233 338 452 74 216 153 348 289 484 162 162 376 272 575 296
28 4 51 8 53 9 6 5 215 -3 257 -10z"/>
</g>
</svg>
